<svg xmlns="http://www.w3.org/2000/svg" version="1.1" xmlns:xlink="http://www.w3.org/1999/xlink" xmlns:svgjs="http://svgjs.dev/svgjs" width="1500" height="329" viewBox="0 0 1500 329"><g transform="matrix(1,0,0,1,-0.9090909090909918,-7.548481060002047)"><svg viewBox="0 0 396 87" data-background-color="#f7f8fa" preserveAspectRatio="xMidYMid meet" height="329" width="1500" xmlns="http://www.w3.org/2000/svg" xmlns:xlink="http://www.w3.org/1999/xlink"><g id="tight-bounds" transform="matrix(1,0,0,1,0.2400000000000091,1.9961028942862526)"><svg viewBox="0 0 395.52 84.62104011692637" height="84.62104011692637" width="395.52"><g><svg viewBox="0 0 477.6225865340059 102.18679221238938" height="84.62104011692637" width="395.52"><g transform="matrix(1,0,0,1,0,14.122776637168144)"><svg viewBox="0 0 395.52 73.94123893805309" height="73.94123893805309" width="395.52"><g id="textblocktransform"><svg viewBox="0 0 395.52 73.94123893805309" height="73.94123893805309" width="395.52" id="textblock"><g><svg viewBox="0 0 395.52 73.94123893805309" height="73.94123893805309" width="395.52"><g transform="matrix(1,0,0,1,0,0)"><svg width="395.52" viewBox="2.4399999999999995 -31.98 220.68 41.26" height="73.94123893805309" data-palette-color="#6a0dad"><path d="M26.76-2.25L26.76-2.25Q26.76-0.2 27.34 0.1L27.34 0.1Q27.69 0.24 28.27 0.24L28.27 0.24 28.27-8.98 27.1-8.98Q24.61-0.93 17.14-0.88L17.14-0.88Q10.79-0.88 8.5-7.28L8.5-7.28Q7.37-10.4 7.37-14.65L7.37-14.65Q7.37-23.78 12.4-27.05L12.4-27.05Q14.6-28.42 17.29-28.42L17.29-28.42Q23.39-28.42 26.12-22.66L26.12-22.66Q26.61-21.63 26.95-20.56L26.95-20.56 28.13-20.56 27.98-29.54Q26.9-29.54 26.66-28.86L26.66-28.86Q26.51-28.27 26.51-26.95L26.51-26.95Q25.1-28.37 21.68-29.25L21.68-29.25Q19.43-29.79 17.09-29.79L17.09-29.79Q9.38-29.79 5.27-24.07L5.27-24.07Q2.44-20.02 2.44-14.75L2.44-14.75Q2.44-8.35 6.4-4L6.4-4Q10.6 0.49 17.33 0.49L17.33 0.49Q22.27 0.44 26.76-2.25ZM36.57-10.4L36.57-10.4Q36.57-17.97 40.72-19.63L40.72-19.63Q41.79-20.02 42.97-20.02L42.97-20.02Q48.39-20.02 49.27-13.18L49.27-13.18Q49.41-12.01 49.41-10.6L49.41-10.6Q49.41-2.39 44.92-0.98L44.92-0.98Q44.04-0.73 43.11-0.73L43.11-0.73Q38.18-0.73 36.91-6.59L36.91-6.59Q36.57-8.3 36.57-10.4ZM43.11-21.24L43.11-21.24Q38.43-21.24 35.3-18.02L35.3-18.02Q32.42-15.04 32.42-10.6L32.42-10.6Q32.42-4.44 36.91-1.37L36.91-1.37Q39.65 0.49 42.97 0.49L42.97 0.49Q47.65 0.49 50.73-2.83L50.73-2.83Q53.56-5.86 53.56-10.4L53.56-10.4Q53.56-16.55 49.02-19.53L49.02-19.53Q46.34-21.24 43.11-21.24ZM66.5-1.22L66.5-1.22 64.3-1.22 64.3-11.77Q64.45-16.31 67.52-18.31L67.52-18.31Q68.84-19.14 70.21-19.14L70.21-19.14Q73.19-19.14 74.26-16.36L74.26-16.36Q74.7-15.23 74.7-13.82L74.7-13.82 74.7-4.15Q74.7-1.9 73.43-1.46L73.43-1.46Q72.7-1.22 71.04-1.22L71.04-1.22 71.04 0 82.03 0Q82.03-1.07 81.29-1.17L81.29-1.17Q81.1-1.22 80.81-1.22L80.81-1.22 78.36-1.22 78.36-13.33Q78.36-18.21 75-20.31L75-20.31Q73.43-21.24 71.63-21.24L71.63-21.24Q68.01-21.24 65.67-18.36L65.67-18.36Q64.79-17.24 64.25-15.87L64.25-15.87 64.06-20.75 56.98-20.75 56.98-19.53 60.64-19.53 60.64-4.15Q60.64-1.9 59.37-1.46L59.37-1.46Q58.64-1.22 56.98-1.22L56.98-1.22 56.98 0 67.72 0Q67.72-1.07 66.99-1.17L66.99-1.17Q66.79-1.22 66.5-1.22ZM94.23-1.22L94.23-1.22 92.03-1.22 92.03-11.77Q92.18-16.31 95.26-18.31L95.26-18.31Q96.57-19.14 97.94-19.14L97.94-19.14Q100.92-19.14 101.99-16.36L101.99-16.36Q102.43-15.23 102.43-13.82L102.43-13.82 102.43-4.15Q102.43-1.9 101.16-1.46L101.16-1.46Q100.43-1.22 98.77-1.22L98.77-1.22 98.77 0 109.76 0Q109.76-1.07 109.03-1.17L109.03-1.17Q108.83-1.22 108.54-1.22L108.54-1.22 106.1-1.22 106.1-13.33Q106.1-18.21 102.73-20.31L102.73-20.31Q101.16-21.24 99.36-21.24L99.36-21.24Q95.74-21.24 93.4-18.36L93.4-18.36Q92.52-17.24 91.98-15.87L91.98-15.87 91.79-20.75 84.71-20.75 84.71-19.53 88.37-19.53 88.37-4.15Q88.37-1.9 87.1-1.46L87.1-1.46Q86.37-1.22 84.71-1.22L84.71-1.22 84.71 0 95.45 0Q95.45-1.07 94.72-1.17L94.72-1.17Q94.52-1.22 94.23-1.22ZM123.13-20.02L123.13-20.02Q126.55-20.02 127.68-17.14L127.68-17.14Q128.07-16.21 128.07-15.14L128.07-15.14Q128.07-12.7 125.72-12.16L125.72-12.16Q124.5-11.91 122.26-11.96L122.26-11.96 117.08-12.11Q117.32-17.72 120.74-19.43L120.74-19.43Q121.87-20.02 123.13-20.02ZM131.63-4.69L131.63-4.69 130.41-5.13Q128.7-1.42 124.89-0.93L124.89-0.93Q124.4-0.88 123.96-0.88L123.96-0.88Q118.84-0.88 117.52-6.98L117.52-6.98Q117.13-8.69 117.08-10.74L117.08-10.74 122.94-10.64Q128.9-10.55 130.61-11.77L130.61-11.77Q131.92-12.74 131.92-14.55L131.92-14.55Q131.92-17.87 128.55-19.82L128.55-19.82Q126.16-21.24 123.04-21.24L123.04-21.24Q116.93-21.24 114.3-16.16L114.3-16.16Q112.93-13.53 112.93-10.21L112.93-10.21Q112.93-4.15 117.28-1.22L117.28-1.22Q119.86 0.49 123.18 0.49L123.18 0.49Q128.46 0.49 130.95-3.32L130.95-3.32Q131.34-4 131.63-4.69ZM135.58-10.16L135.58-10.16Q135.58-4.25 139.93-1.32L139.93-1.32Q142.61 0.49 146.03 0.49L146.03 0.49Q151.11 0.49 153.7-3.08L153.7-3.08Q154.28-3.91 154.63-4.74L154.63-4.74 153.36-5.18Q151.55-1.32 147.4-0.93L147.4-0.93Q147.01-0.88 146.62-0.88L146.62-0.88Q143.15-0.88 141.2-4.35L141.2-4.35Q139.73-6.98 139.73-10.6L139.73-10.6Q139.73-16.99 143.1-19.14L143.1-19.14Q144.52-20.02 146.23-20.02L146.23-20.02Q148.86-20.02 149.4-17.97L149.4-17.97Q149.5-17.58 149.65-16.75L149.65-16.75Q149.94-14.79 150.72-14.31L150.72-14.31Q151.21-14.06 151.79-14.01L151.79-14.01Q153.45-13.92 153.89-15.38L153.89-15.38Q153.99-15.72 153.99-16.02L153.99-16.02Q153.99-18.51 150.82-20.12L150.82-20.12Q148.57-21.24 145.93-21.24L145.93-21.24Q139.39-21.24 136.8-15.92L136.8-15.92Q135.58-13.38 135.58-10.16ZM155.84-20.75L155.84-19.53 159.26-19.53 159.26-5.76Q159.6 0.34 164.88 0.54L164.88 0.54Q169.37 0.54 170.49-4.98L170.49-4.98Q170.49-5.03 170.49-5.08L170.49-5.08 169.17-5.32Q167.95-1.27 165.61-0.93L165.61-0.93Q162.97-1.03 162.92-4.69L162.92-4.69 162.92-19.53 170.49-19.53 170.49-20.75 162.92-20.75 162.92-26.42 159.26-25.39 159.26-20.75 155.84-20.75ZM182.21-1.22L182.21-1.22 179.77-1.22 179.77-20.75 172.2-20.75 172.2-19.53 176.11-19.53 176.11-4.15Q176.11-1.9 174.59-1.42L174.59-1.42Q173.86-1.22 172.2-1.22L172.2-1.22 172.2 0 183.43 0Q183.43-1.07 182.7-1.17L182.7-1.17Q182.45-1.22 182.21-1.22ZM180.35-27.88L180.35-27.88Q180.35-29.59 178.84-30.32L178.84-30.32Q178.25-30.57 177.72-30.57L177.72-30.57Q176.01-30.57 175.28-29L175.28-29Q175.03-28.47 175.03-27.88L175.03-27.88Q175.03-26.07 176.64-25.39L176.64-25.39Q177.18-25.2 177.72-25.2L177.72-25.2Q179.43-25.2 180.11-26.76L180.11-26.76Q180.35-27.29 180.35-27.88ZM197.15-1.22L197.15-1.22 193.73-1.22 193.73-19.53 199.35-19.53 199.35-20.75 193.73-20.75 193.73-21.04Q193.73-29.39 196.22-30.52L196.22-30.52Q196.76-30.76 197.39-30.76L197.39-30.76Q198.91-30.76 199.93-28.96L199.93-28.96Q200.81-27.39 201.2-27.1L201.2-27.1Q201.59-26.81 202.08-26.81L202.08-26.81Q203.69-26.81 203.98-28.17L203.98-28.17Q204.03-28.42 204.03-28.61L204.03-28.61Q204.03-30.42 201.59-31.45L201.59-31.45Q200.18-31.98 198.42-31.98L198.42-31.98Q193.83-31.98 191.58-28.17L191.58-28.17Q190.07-25.54 190.07-21.53L190.07-21.53 190.07-20.75 186.65-20.75 186.65-19.53 190.07-19.53 190.07-4.15Q190.07-1.9 188.8-1.46L188.8-1.46Q188.07-1.22 186.41-1.22L186.41-1.22 186.41 0 198.37 0Q198.37-1.07 197.64-1.17L197.64-1.17Q197.44-1.22 197.15-1.22ZM204.76 7.76L204.76 7.76Q203.98 7.76 203.59 6.59L203.59 6.59Q203.05 5.13 202.57 4.79L202.57 4.79Q202.13 4.49 201.54 4.49L201.54 4.49Q199.98 4.49 199.73 5.86L199.73 5.86Q199.68 6.05 199.68 6.2L199.68 6.2Q199.68 8.06 201.83 8.89L201.83 8.89Q202.81 9.28 203.88 9.28L203.88 9.28Q207.74 9.28 210.57 4.54L210.57 4.54Q211.75 2.64 212.82 0L212.82 0 220.05-17.82Q220.53-19.19 221.12-19.38L221.12-19.38Q221.46-19.48 221.9-19.48L221.9-19.48Q222.88-19.48 223.02-20.02L223.02-20.02Q223.12-20.31 223.12-20.75L223.12-20.75 215.7-20.75 215.7-19.48 219.26-19.48 213.01-3.86 206.33-19.48 209.6-19.48 209.6-20.75 200.08-20.75 200.08-19.48 202.47-19.48 211.26 0Q208.52 6.45 206.13 7.47L206.13 7.47Q205.45 7.76 204.76 7.76Z" opacity="1" transform="matrix(1,0,0,1,0,0)" fill="#6a0dad" class="wordmark-text-0" data-fill-palette-color="primary" id="text-0"></path></svg></g></svg></g></svg></g></svg></g><g transform="matrix(1,0,0,1,412.9757519235398,0)"><svg viewBox="0 0 64.64683461046609 102.18679221238938" height="102.18679221238938" width="64.64683461046609"><g><svg xmlns="http://www.w3.org/2000/svg" xmlns:xlink="http://www.w3.org/1999/xlink" version="1.1" x="0" y="0" viewBox="22.162 6.498999984194633 55.67208907114979 88.00047569571484" enable-background="new 0 0 100 100" xml:space="preserve" height="102.18679221238938" width="64.64683461046609" class="icon-icon-0" data-fill-palette-color="accent" id="icon-0"><g fill="#6a0dad" data-fill-palette-color="accent"><g fill="#6a0dad" data-fill-palette-color="accent"><path fill-rule="evenodd" clip-rule="evenodd" d="M61.449 22.663C65.912 22.663 69.53 19.045 69.53 14.581S65.912 6.5 61.449 6.5A8.081 8.081 0 1 0 61.449 22.663M61.449 8.745A5.836 5.836 0 1 1 61.449 20.418 5.837 5.837 0 1 1 61.449 8.745M77.648 37.335C76.448 29.79 69.652 24.01 61.449 24.01 56.989 24.01 52.955 25.727 50 28.499 47.045 25.727 43.01 24.01 38.55 24.01 30.332 24.01 23.529 29.81 22.345 37.375 22.233 37.584 22.162 37.903 22.162 38.377V54.99A4.938 4.938 0 0 0 29.795 59.125V89.561A4.938 4.938 0 0 0 38.55 92.694 4.938 4.938 0 0 0 47.305 89.561V59.125C47.522 59.267 47.753 59.388 47.992 59.495 48.078 59.533 48.168 59.562 48.256 59.597 48.447 59.669 48.643 59.731 48.844 59.78 48.933 59.801 49.021 59.823 49.112 59.84 49.401 59.894 49.695 59.93 49.999 59.93A4.8 4.8 0 0 0 51.152 59.78C51.357 59.73 51.557 59.669 51.753 59.593 51.836 59.562 51.92 59.534 52 59.498A5 5 0 0 0 52.694 59.126V89.562A4.938 4.938 0 0 0 61.448 92.695 4.938 4.938 0 0 0 70.202 89.562V59.125A4.9 4.9 0 0 0 72.896 59.929 4.94 4.94 0 0 0 77.834 54.984V38.351C77.837 37.868 77.764 37.544 77.648 37.335M45.244 37.375C45.132 37.584 45.061 37.903 45.061 38.377V89.561A2.694 2.694 0 0 1 39.673 89.561V57.459A1.122 1.122 0 1 0 37.428 57.459V89.562A2.694 2.694 0 0 1 32.04 89.562V39.5A1.123 1.123 0 0 0 29.794 39.5V54.99A2.694 2.694 0 0 1 24.406 54.99V39.725C24.406 32.286 30.791 26.255 38.549 26.255 42.399 26.255 45.908 27.743 48.47 30.149 46.812 32.214 45.666 34.678 45.244 37.375M52.694 54.983A2.695 2.695 0 1 1 47.306 54.983V39.725C47.306 36.785 48.315 34.073 50 31.858 51.686 34.073 52.694 36.785 52.694 39.725zM75.592 54.983A2.695 2.695 0 0 1 72.899 57.68 2.695 2.695 0 0 1 70.205 54.983V43.092A1.123 1.123 0 0 0 67.96 43.092V89.562A2.693 2.693 0 0 1 62.573 89.562V57.459A1.122 1.122 0 1 0 60.328 57.459V89.562A2.693 2.693 0 0 1 54.941 89.562V38.352C54.941 37.869 54.869 37.545 54.753 37.336 54.326 34.655 53.183 32.204 51.53 30.149 54.092 27.743 57.601 26.255 61.451 26.255 69.209 26.255 75.594 32.286 75.594 39.725V54.983zM38.551 22.663A8.082 8.082 0 1 0 38.551 6.499 8.082 8.082 0 0 0 38.55 22.663M38.551 8.745A5.836 5.836 0 1 1 38.552 20.418 5.836 5.836 0 0 1 38.551 8.745" fill="#6a0dad" data-fill-palette-color="accent"></path></g></g></svg></g></svg></g></svg></g><defs></defs></svg><rect width="395.52" height="84.62104011692637" fill="none" stroke="none" visibility="hidden"></rect></g></svg></g></svg>